<svg xmlns="http://www.w3.org/2000/svg" viewBox="0 0 24 24"><title>dribbble</title><path d="M11.92,22.36A10.36,10.36,0,1,1,22.28,12,10.36,10.36,0,0,1,11.92,22.36Zm.24-11.9a32.74,32.74,0,0,1-9.08,1.26,2.62,2.62,0,0,0,0,.28,8.88,8.88,0,0,0,2.26,5.91,14.05,14.05,0,0,1,7.2-5.84l.35-.11Q12.55,11.21,12.16,10.46ZM8.14,4a8.85,8.85,0,0,0-4.88,6.18,33.14,33.14,0,0,0,8.17-1.09A51.37,51.37,0,0,0,8.14,4Zm5.34,9.43h-.05S8.19,15.28,6.48,19l-.2-.15a8.87,8.87,0,0,0,9.1,1.32,38.35,38.35,0,0,0-1.89-6.72Zm-3.7-10,0,0S9.79,3.4,9.78,3.42Zm2.14-.27a9.19,9.19,0,0,0-2.09.25,43.12,43.12,0,0,1,3.32,5.16,9.49,9.49,0,0,0,4.61-3.2A8.79,8.79,0,0,0,11.92,3.15Zm6.84,3.22a11.39,11.39,0,0,1-4.94,3.51c.21.42.41.85.6,1.28.07.15.12.31.19.46a20.44,20.44,0,0,1,6.17.29,9,9,0,0,0-2-5.54ZM15.15,13a39.76,39.76,0,0,1,1.72,6.33,8.86,8.86,0,0,0,3.79-5.94A13.24,13.24,0,0,0,15.15,13Z"/></svg>