<svg xmlns="http://www.w3.org/2000/svg" viewBox="0 0 24 24"><title>github</title><path d="M22.88,12.27A10.9,10.9,0,0,1,15.45,22.6c-.56.1-.75-.24-.75-.53s0-1.53,0-3a2.59,2.59,0,0,0-.73-2c2.42-.27,5-1.19,5-5.36a4.25,4.25,0,0,0-1.12-2.92,4,4,0,0,0-.12-2.89c-.9-.28-3,1.12-3,1.12A10.29,10.29,0,0,0,9.28,7S7.2,5.62,6.3,5.9a4,4,0,0,0-.12,2.89,4.2,4.2,0,0,0-1.11,2.92c0,4.16,2.53,5.09,4.95,5.36a2.44,2.44,0,0,0-.69,1.46,2.3,2.3,0,0,1-3.16-.9A2.24,2.24,0,0,0,4.5,16.51c-1.07,0-.07.66-.07.66.71.33,1.2,1.59,1.2,1.59.64,1.94,3.67,1.29,3.67,1.29,0,.9,0,1.75,0,2s-.19.62-.74.52A10.89,10.89,0,1,1,22.89,12.28ZM5.15,16.85c-.09,0-.16,0-.18,0s0,.12.1.17a.13.13,0,0,0,.18,0h0C5.28,17,5.23,16.89,5.15,16.85Zm.51.42c-.07-.07-.17-.1-.23,0s0,.14,0,.23.17.1.23,0,0-.14,0-.23Zm.45.6a.17.17,0,0,0-.22-.1h0c-.07,0-.07.16,0,.26s.19.14.24.1.2,0,.2-.14a.13.13,0,0,0-.2-.13Zm.54.59c-.1-.1-.23-.11-.29,0a.2.2,0,0,0,.06.27c.1.08.23.11.28,0s0-.18,0-.27Zm.68.4a.22.22,0,0,0-.27.1c0,.08.05.18.18.21a.21.21,0,0,0,.27-.08c0-.09,0-.19-.18-.23Zm.84.14c-.13,0-.23.07-.23.16s.1.17.25.15.22-.07.22-.15S8.29,19,8.17,19ZM9,18.89c-.13,0-.22.11-.2.21s.13.14.25.12.22-.12.2-.2-.13-.15-.26-.13Z"/></svg>