<svg xmlns="http://www.w3.org/2000/svg" viewBox="0 0 203.86 198.85">
  <title>icon-github</title>
  <path d="M203.86,101.93a102.09,102.09,0,0,1-69.68,96.75c-5.18.93-7-2.26-7-4.91,0-3.32.13-14.33.13-28,0-9.56-3.19-15.66-6.9-18.85,22.7-2.52,46.58-11.15,46.58-50.3a39.48,39.48,0,0,0-10.49-27.34c1.06-2.65,4.51-13-1.06-27.08-8.49-2.65-28,10.49-28,10.49a95.8,95.8,0,0,0-51,0s-19.51-13.14-28-10.49c-5.57,14.07-2.12,24.42-1.06,27.08A39.48,39.48,0,0,0,36.9,96.62c0,39,23.76,47.78,46.45,50.3-2.92,2.65-5.57,7.17-6.5,13.67-5.84,2.65-20.71,7.17-29.6-8.49a21.38,21.38,0,0,0-15.66-10.48c-10-.13-.66,6.24-.66,6.24,6.64,3.05,11.28,14.86,11.28,14.86,6,18.18,34.38,12.08,34.38,12.08,0,8.49.13,16.46.13,19s-1.86,5.84-7,4.91a102,102,0,1,1,134.18-96.75ZM37.69,144.8c-.8-.27-1.46-.13-1.72.27s.13,1.19.93,1.59a1.21,1.21,0,0,0,1.73-.27C38.89,145.86,38.49,145.2,37.69,144.8Zm4.78,4c-.66-.66-1.59-.93-2.12-.4s-.4,1.33.26,2.12,1.59.93,2.12.4S43.13,149.58,42.47,148.78Zm4.25,5.57a1.6,1.6,0,0,0-2.26-.8c-.66.4-.66,1.46,0,2.39s1.72,1.33,2.26.93A1.83,1.83,0,0,0,46.72,154.35Zm5,5.57c-.93-.93-2.12-1.06-2.65-.4s-.4,1.73.53,2.52,2.12,1.06,2.65.4S52.56,160.73,51.76,159.93Zm6.37,3.72a2.11,2.11,0,0,0-2.52.93c-.27.8.53,1.73,1.73,2a1.93,1.93,0,0,0,2.52-.8C60.12,165,59.33,164,58.13,163.65ZM66,165c-1.19,0-2.12.66-2.12,1.46s.93,1.59,2.26,1.46,2.12-.66,2.12-1.46S67.16,164.84,66,165Zm7.57-1.06c-1.19.27-2,1.06-1.86,2s1.2,1.33,2.39,1.06,2-1.06,1.86-1.86S74.72,163.78,73.53,163.91Z"/>
</svg>
