<svg xmlns="http://www.w3.org/2000/svg" viewBox="0 0 24 24"><title>instagram</title><path d="M21.56,16A5.72,5.72,0,0,1,20,20a5.72,5.72,0,0,1-4,1.56c-1.33.07-2.64.06-4,.06s-2.64,0-4-.06A5.72,5.72,0,0,1,4,20a5.72,5.72,0,0,1-1.56-4c-.07-1.33-.06-2.64-.06-4s0-2.64.06-4A5.72,5.72,0,0,1,4,4,5.72,5.72,0,0,1,8,2.44c1.33-.07,2.64-.06,4-.06s2.64,0,4,.06A5.72,5.72,0,0,1,20,4a5.72,5.72,0,0,1,1.56,4c.07,1.33.06,2.64.06,4S21.63,14.64,21.56,16ZM6.33,4.5a3.18,3.18,0,0,0-1.11.72A3.13,3.13,0,0,0,4.5,6.33C4,7.59,4.11,10.6,4.11,12S4,16.41,4.5,17.67A3.17,3.17,0,0,0,6.33,19.5c1.26.5,4.27.39,5.67.39s4.41.11,5.67-.39a3.23,3.23,0,0,0,1.83-1.83c.5-1.26.39-4.27.39-5.67S20,7.59,19.5,6.33A3.25,3.25,0,0,0,17.67,4.5C16.41,4,13.4,4.11,12,4.11S7.59,4,6.33,4.5ZM12,16.94A4.94,4.94,0,1,1,16.93,12,4.93,4.93,0,0,1,12,16.94Zm0-8.15A3.21,3.21,0,1,0,15.21,12h0A3.23,3.23,0,0,0,12,8.79ZM17.14,8a1.16,1.16,0,1,1,1.15-1.15A1.16,1.16,0,0,1,17.14,8Z"/></svg>