<svg xmlns="http://www.w3.org/2000/svg" viewBox="0 0 24 24"><title>twitter</title><path d="M20.19,8.7c0,.17,0,.35,0,.53A11.63,11.63,0,0,1,8.49,20.94a11.6,11.6,0,0,1-6.32-1.85,6.57,6.57,0,0,0,1,.05,8.24,8.24,0,0,0,5.11-1.75,4.13,4.13,0,0,1-3.85-2.86,6.85,6.85,0,0,0,.78.07,5,5,0,0,0,1.09-.14,4.12,4.12,0,0,1-3.31-4v-.05a4.32,4.32,0,0,0,1.86.52A4.13,4.13,0,0,1,3.57,5.38a11.69,11.69,0,0,0,8.49,4.31,4.29,4.29,0,0,1-.1-.94,4.12,4.12,0,0,1,7.12-2.82,8.19,8.19,0,0,0,2.61-1A4.1,4.1,0,0,1,19.88,7.2a8.07,8.07,0,0,0,2.37-.63A8.87,8.87,0,0,1,20.19,8.7Z"/></svg>