<?xml version="1.0" encoding="UTF-8"?><!DOCTYPE svg PUBLIC "-//W3C//DTD SVG 1.1//EN" "http://www.w3.org/Graphics/SVG/1.1/DTD/svg11.dtd"><svg xmlns="http://www.w3.org/2000/svg" xmlns:xlink="http://www.w3.org/1999/xlink"><defs/><symbol id="dribbble" viewBox="0 0 24 24"><title>dribbble</title><path d="M11.92,22.36A10.36,10.36,0,1,1,22.28,12,10.36,10.36,0,0,1,11.92,22.36Zm.24-11.9a32.74,32.74,0,0,1-9.08,1.26,2.62,2.62,0,0,0,0,.28,8.88,8.88,0,0,0,2.26,5.91,14.05,14.05,0,0,1,7.2-5.84l.35-.11Q12.55,11.21,12.16,10.46ZM8.14,4a8.85,8.85,0,0,0-4.88,6.18,33.14,33.14,0,0,0,8.17-1.09A51.37,51.37,0,0,0,8.14,4Zm5.34,9.43h-.05S8.19,15.28,6.48,19l-.2-.15a8.87,8.87,0,0,0,9.1,1.32,38.35,38.35,0,0,0-1.89-6.72Zm-3.7-10,0,0S9.79,3.4,9.78,3.42Zm2.14-.27a9.19,9.19,0,0,0-2.09.25,43.12,43.12,0,0,1,3.32,5.16,9.49,9.49,0,0,0,4.61-3.2A8.79,8.79,0,0,0,11.92,3.15Zm6.84,3.22a11.39,11.39,0,0,1-4.94,3.51c.21.42.41.85.6,1.28.07.15.12.31.19.46a20.44,20.44,0,0,1,6.17.29,9,9,0,0,0-2-5.54ZM15.15,13a39.76,39.76,0,0,1,1.72,6.33,8.86,8.86,0,0,0,3.79-5.94A13.24,13.24,0,0,0,15.15,13Z"/></symbol><symbol id="github" viewBox="0 0 24 24"><title>github</title><path d="M22.88,12.27A10.9,10.9,0,0,1,15.45,22.6c-.56.1-.75-.24-.75-.53s0-1.53,0-3a2.59,2.59,0,0,0-.73-2c2.42-.27,5-1.19,5-5.36a4.25,4.25,0,0,0-1.12-2.92,4,4,0,0,0-.12-2.89c-.9-.28-3,1.12-3,1.12A10.29,10.29,0,0,0,9.28,7S7.2,5.62,6.3,5.9a4,4,0,0,0-.12,2.89,4.2,4.2,0,0,0-1.11,2.92c0,4.16,2.53,5.09,4.95,5.36a2.44,2.44,0,0,0-.69,1.46,2.3,2.3,0,0,1-3.16-.9A2.24,2.24,0,0,0,4.5,16.51c-1.07,0-.07.66-.07.66.71.33,1.2,1.59,1.2,1.59.64,1.94,3.67,1.29,3.67,1.29,0,.9,0,1.75,0,2s-.19.62-.74.52A10.89,10.89,0,1,1,22.89,12.28ZM5.15,16.85c-.09,0-.16,0-.18,0s0,.12.1.17a.13.13,0,0,0,.18,0h0C5.28,17,5.23,16.89,5.15,16.85Zm.51.42c-.07-.07-.17-.1-.23,0s0,.14,0,.23.17.1.23,0,0-.14,0-.23Zm.45.6a.17.17,0,0,0-.22-.1h0c-.07,0-.07.16,0,.26s.19.14.24.1.2,0,.2-.14a.13.13,0,0,0-.2-.13Zm.54.59c-.1-.1-.23-.11-.29,0a.2.2,0,0,0,.06.27c.1.08.23.11.28,0s0-.18,0-.27Zm.68.4a.22.22,0,0,0-.27.1c0,.08.05.18.18.21a.21.21,0,0,0,.27-.08c0-.09,0-.19-.18-.23Zm.84.14c-.13,0-.23.07-.23.16s.1.17.25.15.22-.07.22-.15S8.29,19,8.17,19ZM9,18.89c-.13,0-.22.11-.2.21s.13.14.25.12.22-.12.2-.2-.13-.15-.26-.13Z"/></symbol><symbol id="instagram" viewBox="0 0 24 24"><title>instagram</title><path d="M21.56,16A5.72,5.72,0,0,1,20,20a5.72,5.72,0,0,1-4,1.56c-1.33.07-2.64.06-4,.06s-2.64,0-4-.06A5.72,5.72,0,0,1,4,20a5.72,5.72,0,0,1-1.56-4c-.07-1.33-.06-2.64-.06-4s0-2.64.06-4A5.72,5.72,0,0,1,4,4,5.72,5.72,0,0,1,8,2.44c1.33-.07,2.64-.06,4-.06s2.64,0,4,.06A5.72,5.72,0,0,1,20,4a5.72,5.72,0,0,1,1.56,4c.07,1.33.06,2.64.06,4S21.63,14.64,21.56,16ZM6.33,4.5a3.18,3.18,0,0,0-1.11.72A3.13,3.13,0,0,0,4.5,6.33C4,7.59,4.11,10.6,4.11,12S4,16.41,4.5,17.67A3.17,3.17,0,0,0,6.33,19.5c1.26.5,4.27.39,5.67.39s4.41.11,5.67-.39a3.23,3.23,0,0,0,1.83-1.83c.5-1.26.39-4.27.39-5.67S20,7.59,19.5,6.33A3.25,3.25,0,0,0,17.67,4.5C16.41,4,13.4,4.11,12,4.11S7.59,4,6.33,4.5ZM12,16.94A4.94,4.94,0,1,1,16.93,12,4.93,4.93,0,0,1,12,16.94Zm0-8.15A3.21,3.21,0,1,0,15.21,12h0A3.23,3.23,0,0,0,12,8.79ZM17.14,8a1.16,1.16,0,1,1,1.15-1.15A1.16,1.16,0,0,1,17.14,8Z"/></symbol><symbol id="linkedin" viewBox="0 0 24 24"><title>linkedin</title><path d="M6,7.26h0a1.91,1.91,0,0,1-2-1.92A1.93,1.93,0,0,1,6,3.42,1.93,1.93,0,1,1,6,7.26ZM7.81,19.9H4.1V8.77H7.81Zm13.32,0H17.44V14c0-1.49-.54-2.51-1.87-2.51a2,2,0,0,0-1.9,1.34,2.81,2.81,0,0,0-.12.91V19.9H9.85c.05-10.08,0-11.13,0-11.13h3.7v1.62h0a3.7,3.7,0,0,1,3.36-1.87c2.44,0,4.26,1.59,4.26,5Z"/></symbol><symbol id="twitter" viewBox="0 0 24 24"><title>twitter</title><path d="M20.19,8.7c0,.17,0,.35,0,.53A11.63,11.63,0,0,1,8.49,20.94a11.6,11.6,0,0,1-6.32-1.85,6.57,6.57,0,0,0,1,.05,8.24,8.24,0,0,0,5.11-1.75,4.13,4.13,0,0,1-3.85-2.86,6.85,6.85,0,0,0,.78.07,5,5,0,0,0,1.09-.14,4.12,4.12,0,0,1-3.31-4v-.05a4.32,4.32,0,0,0,1.86.52A4.13,4.13,0,0,1,3.57,5.38a11.69,11.69,0,0,0,8.49,4.31,4.29,4.29,0,0,1-.1-.94,4.12,4.12,0,0,1,7.12-2.82,8.19,8.19,0,0,0,2.61-1A4.1,4.1,0,0,1,19.88,7.2a8.07,8.07,0,0,0,2.37-.63A8.87,8.87,0,0,1,20.19,8.7Z"/></symbol></svg>