<svg viewBox="0 0 963 322" xmlns="http://www.w3.org/2000/svg" xmlns:xlink="http://www.w3.org/1999/xlink">
    <defs>
        <radialGradient cx="0%" cy="4.59355222%" fx="0%" fy="4.59355222%" r="126.556688%" gradientTransform="translate(0.000000,0.045936),scale(1.000000,0.787975),rotate(51.801287),translate(-0.000000,-0.045936)" id="radialGradient-1">
            <stop stop-color="#4B4B50" offset="0%"></stop>
            <stop stop-color="#313138" offset="22.0632378%"></stop>
            <stop stop-color="#1A1A1F" offset="65.9662424%"></stop>
            <stop stop-color="#070709" offset="100%"></stop>
        </radialGradient>
        <path d="M115.40107,257.41573 L249,257.41573 L249,316 L14.2032086,316 L14.2032086,269.398876 L134.042781,156.224719 C161.561497,130.039326 166.44385,114.061798 166.44385,98.9719101 C166.44385,74.5617978 149.57754,60.3595506 116.73262,60.3595506 C90.1016043,60.3595506 67.4652406,70.5674157 52.3743316,91.4269663 L0,57.6966292 C23.9679144,22.6348315 67.4652406,0 123.390374,0 C192.631016,0 238.791444,35.505618 238.791444,91.8707865 C238.791444,122.050562 230.358289,149.567416 186.860963,189.955056 L115.40107,257.41573 Z" id="path-2"></path>
        <radialGradient cx="2.20424107%" cy="6.55544198%" fx="2.20424107%" fy="6.55544198%" r="120.371203%" gradientTransform="translate(0.022042,0.065554),scale(1.000000,0.828660),rotate(53.344557),translate(-0.022042,-0.065554)" id="radialGradient-3">
            <stop stop-color="#7F7F86" offset="0%"></stop>
            <stop stop-color="#393941" offset="13.6973293%"></stop>
            <stop stop-color="#1A1A1F" offset="52.7411259%"></stop>
            <stop stop-color="#0B0B0E" offset="100%"></stop>
        </radialGradient>
        <path d="M401,321 C324.746667,321 268,262.918508 268,160.5 C268,58.0814917 324.746667,0 401,0 C477.696667,0 534,58.0814917 534,160.5 C534,262.918508 477.696667,321 401,321 Z M401.278388,261 C437.179487,261 462,231.666667 462,161 C462,90.3333333 437.179487,61 401.278388,61 C365.820513,61 341,90.3333333 341,161 C341,231.666667 365.820513,261 401.278388,261 Z" id="path-4"></path>
        <radialGradient cx="-8.75234962%" cy="-3.3530746%" fx="-8.75234962%" fy="-3.3530746%" r="250.171257%" gradientTransform="translate(-0.087523,-0.033531),scale(1.000000,0.429032),rotate(57.615789),translate(0.087523,0.033531)" id="radialGradient-5">
            <stop stop-color="#45454B" offset="0%"></stop>
            <stop stop-color="#242429" offset="30.9535333%"></stop>
            <stop stop-color="#19191E" offset="59.2656712%"></stop>
            <stop stop-color="#08080A" offset="100%"></stop>
        </radialGradient>
        <polygon id="path-6" points="540 6 673 6 673 316 601.655629 316 601.655629 63.5714286 540 63.5714286"></polygon>
        <radialGradient cx="0%" cy="2.98627336%" fx="0%" fy="2.98627336%" r="146.20397%" gradientTransform="translate(0.000000,0.029863),scale(1.000000,0.797508),rotate(51.081599),translate(-0.000000,-0.029863)" id="radialGradient-7">
            <stop stop-color="#797981" offset="0%"></stop>
            <stop stop-color="#36363E" offset="10.1951137%"></stop>
            <stop stop-color="#141419" offset="54.6704616%"></stop>
            <stop stop-color="#101014" offset="100%"></stop>
        </radialGradient>
        <path d="M823.370242,0 C909.294118,0 962,53.6477901 962,153.849448 C962,261.145028 897.778547,321 803.882353,321 C771.107266,321 739.6609,313.462707 717.958478,299.718232 L744.532872,246.957182 C761.363322,258.484807 781.294118,262.475138 802.553633,262.475138 C853.930796,262.475138 887.591696,231.882597 889.806228,172.027624 C871.647059,190.205801 845.072664,199.959945 812.740484,199.959945 C752.948097,199.959945 706,161.83011 706,103.305249 C706,39.9033149 757.820069,0 823.370242,0 Z M828.778243,147 C860.267782,147 882,127.421053 882,100.277512 C882,73.5789474 862.041841,54 827.891213,54 C797.288703,54 776,71.7990431 776,100.277512 C776,128.755981 796.845188,147 828.778243,147 Z" id="path-8"></path>
    </defs>
    <g id="date-copy-2" stroke="none" stroke-width="1" fill="none" fill-rule="evenodd">
        <g id="Group" transform="translate(1.000000, 1.000000)" fill-rule="nonzero">
            <g id="2019">
                <use fill="#0F0F12" xlink:href="#path-2"></use>
                <use fill-opacity="0.4" fill="url(#radialGradient-1)" xlink:href="#path-2"></use>
            </g>
            <g id="2019">
                <use fill="#0F0F12" xlink:href="#path-4"></use>
                <use fill-opacity="0.4" fill="url(#radialGradient-3)" xlink:href="#path-4"></use>
            </g>
            <g id="2019">
                <use fill="#0F0F12" xlink:href="#path-6"></use>
                <use fill-opacity="0.4" fill="url(#radialGradient-5)" xlink:href="#path-6"></use>
            </g>
            <g id="2019">
                <use fill="#0F0F12" xlink:href="#path-8"></use>
                <use fill-opacity="0.4" fill="url(#radialGradient-7)" xlink:href="#path-8"></use>
            </g>
        </g>
    </g>
</svg>