<svg width="963" height="322" xmlns="http://www.w3.org/2000/svg"><defs><radialGradient cx="0%" cy="4.594%" fx="0%" fy="4.594%" r="126.557%" gradientTransform="scale(1 .78797) rotate(51.801 -.013 .052)" id="a"><stop stop-color="#4B4B50" offset="0%"/><stop stop-color="#313138" offset="22.063%"/><stop stop-color="#1A1A1F" offset="65.966%"/><stop stop-color="#070709" offset="100%"/></radialGradient><radialGradient cx="2.204%" cy="6.555%" fx="2.204%" fy="6.555%" r="120.371%" gradientTransform="scale(1 .82866) rotate(53.345 .009 .072)" id="b"><stop stop-color="#7F7F86" offset="0%"/><stop stop-color="#393941" offset="13.697%"/><stop stop-color="#1A1A1F" offset="52.741%"/><stop stop-color="#0B0B0E" offset="100%"/></radialGradient><radialGradient cx="-8.752%" cy="-3.353%" fx="-8.752%" fy="-3.353%" r="250.171%" gradientTransform="matrix(.5356 .3623 -.84448 .22979 -.069 .006)" id="c"><stop stop-color="#45454B" offset="0%"/><stop stop-color="#242429" offset="30.954%"/><stop stop-color="#19191E" offset="59.266%"/><stop stop-color="#08080A" offset="100%"/></radialGradient><radialGradient cx="0%" cy="2.986%" fx="0%" fy="2.986%" r="146.204%" gradientTransform="scale(1 .7975) rotate(51.082 -.008 .034)" id="d"><stop stop-color="#797981" offset="0%"/><stop stop-color="#36363E" offset="10.195%"/><stop stop-color="#141419" offset="54.67%"/><stop stop-color="#101014" offset="100%"/></radialGradient></defs><g fill-rule="nonzero" fill="none" opacity=".51"><path d="M115.401 257.416H249V316H14.203v-46.601l119.84-113.174c27.518-26.186 32.4-42.163 32.4-57.253 0-24.41-16.865-38.612-49.71-38.612-26.631 0-49.268 10.207-64.359 31.067L0 57.697C23.968 22.635 67.465 0 123.39 0c69.241 0 115.401 35.506 115.401 91.87 0 30.18-8.433 57.697-51.93 98.085l-71.46 67.46z" fill="url(#a)" transform="translate(1 1)"/><path d="M401 321c-76.253 0-133-58.081-133-160.5S324.747 0 401 0c76.697 0 133 58.081 133 160.5S477.697 321 401 321zm.278-60C437.18 261 462 231.667 462 161S437.18 61 401.278 61C365.821 61 341 90.333 341 161s24.82 100 60.278 100z" fill="url(#b)" transform="translate(1 1)"/><path fill="url(#c)" d="M540 6h133v310h-71.344V63.571H540z" transform="translate(1 1)"/><path d="M823.37 0C909.294 0 962 53.648 962 153.85 962 261.144 897.779 321 803.882 321c-32.775 0-64.221-7.537-85.924-21.282l26.575-52.76c16.83 11.527 36.761 15.517 58.02 15.517 51.378 0 85.039-30.592 87.253-90.447-18.159 18.178-44.733 27.932-77.066 27.932-59.792 0-106.74-38.13-106.74-96.655C706 39.903 757.82 0 823.37 0zm5.408 147c31.49 0 53.222-19.579 53.222-46.722C882 73.578 862.042 54 827.891 54 797.29 54 776 71.799 776 100.278 776 128.756 796.845 147 828.778 147z" fill="url(#d)" transform="translate(1 1)"/></g></svg>