<svg viewBox="0 0 963 322" xmlns="http://www.w3.org/2000/svg"><defs><linearGradient x1="78.157%" y1="104.608%" x2="17.623%" y2="-5.304%" id="a"><stop stop-color="#0F0F12" offset="0%"/><stop stop-color="#15151A" offset="41.334%"/><stop stop-color="#232329" offset="100%"/></linearGradient><linearGradient x1="61.801%" y1="100%" x2="24.135%" y2="-5.352%" id="b"><stop stop-color="#0F0F12" offset="0%"/><stop stop-color="#151519" offset="49.993%"/><stop stop-color="#232329" offset="100%"/></linearGradient><linearGradient x1="55.393%" y1="108.852%" x2="26.121%" y2="-14.022%" id="c"><stop stop-color="#111114" offset="0%"/><stop stop-color="#16161A" offset="53.569%"/><stop stop-color="#28282E" offset="100%"/></linearGradient><linearGradient x1="59.391%" y1="100%" x2="1.433%" y2="-18.665%" id="d"><stop stop-color="#0F0F12" offset="0%"/><stop stop-color="#141419" offset="31.3%"/><stop stop-color="#1F1F24" offset="78.787%"/><stop stop-color="#4B4B57" offset="100%"/></linearGradient></defs><g fill-rule="nonzero" fill="none" opacity=".51"><path d="M115.401 257.416H249V316H14.203v-46.601l119.84-113.174c27.518-26.186 32.4-42.163 32.4-57.253 0-24.41-16.865-38.612-49.71-38.612-26.631 0-49.268 10.207-64.359 31.067L0 57.697C23.968 22.635 67.465 0 123.39 0c69.241 0 115.401 35.506 115.401 91.87 0 30.18-8.433 57.697-51.93 98.085l-71.46 67.46z" fill="url(#a)" transform="translate(1 1)"/><path d="M401 321c-76.253 0-133-58.081-133-160.5S324.747 0 401 0c76.697 0 133 58.081 133 160.5S477.697 321 401 321zm.278-60C437.18 261 462 231.667 462 161S437.18 61 401.278 61C365.821 61 341 90.333 341 161s24.82 100 60.278 100z" fill="url(#b)" transform="translate(1 1)"/><path fill="url(#c)" d="M540 6h133v310h-71.344V63.571H540z" transform="translate(1 1)"/><path d="M823.37 0C909.294 0 962 53.648 962 153.85 962 261.144 897.779 321 803.882 321c-32.775 0-64.221-7.537-85.924-21.282l26.575-52.76c16.83 11.527 36.761 15.517 58.02 15.517 51.378 0 85.039-30.592 87.253-90.447-18.159 18.178-44.733 27.932-77.066 27.932-59.792 0-106.74-38.13-106.74-96.655C706 39.903 757.82 0 823.37 0zm5.408 147c31.49 0 53.222-19.579 53.222-46.722C882 73.578 862.042 54 827.891 54 797.29 54 776 71.799 776 100.278 776 128.756 796.845 147 828.778 147z" fill="url(#d)" transform="translate(1 1)"/></g></svg>