<?xml version="1.0" encoding="UTF-8"?>
<svg width="963px" height="322px" viewBox="0 0 963 322" version="1.1" xmlns="http://www.w3.org/2000/svg" xmlns:xlink="http://www.w3.org/1999/xlink">
    <!-- Generator: Sketch 54.1 (76490) - https://sketchapp.com -->
    <title>date</title>
    <desc>Created with Sketch.</desc>
    <defs>
        <linearGradient x1="78.1571205%" y1="104.608386%" x2="10.8954316%" y2="6.02007516%" id="linearGradient-1">
            <stop stop-color="#070709" offset="0%"></stop>
            <stop stop-color="#15151A" offset="44.7365133%"></stop>
            <stop stop-color="#28282F" offset="100%"></stop>
        </linearGradient>
        <linearGradient x1="84.0669551%" y1="95.1083311%" x2="23.8845308%" y2="0%" id="linearGradient-2">
            <stop stop-color="#0B0B0E" offset="0.0765413851%"></stop>
            <stop stop-color="#151519" offset="54.3456678%"></stop>
            <stop stop-color="#2B2B31" offset="100%"></stop>
        </linearGradient>
        <linearGradient x1="55.3926371%" y1="108.852067%" x2="26.1210246%" y2="-14.0221774%" id="linearGradient-3">
            <stop stop-color="#08080A" offset="0%"></stop>
            <stop stop-color="#16161A" offset="49.4852566%"></stop>
            <stop stop-color="#303036" offset="100%"></stop>
        </linearGradient>
        <linearGradient x1="59.3914073%" y1="100%" x2="1.43292476%" y2="-18.664817%" id="linearGradient-4">
            <stop stop-color="#101014" offset="0%"></stop>
            <stop stop-color="#141419" offset="35.7197569%"></stop>
            <stop stop-color="#35353C" offset="100%"></stop>
        </linearGradient>
    </defs>
    <g id="date" stroke="none" stroke-width="1" fill="none" fill-rule="evenodd" opacity="0.509579613">
        <g id="Group" transform="translate(1.000000, 1.000000)" fill-rule="nonzero">
            <path d="M115.40107,257.41573 L249,257.41573 L249,316 L14.2032086,316 L14.2032086,269.398876 L134.042781,156.224719 C161.561497,130.039326 166.44385,114.061798 166.44385,98.9719101 C166.44385,74.5617978 149.57754,60.3595506 116.73262,60.3595506 C90.1016043,60.3595506 67.4652406,70.5674157 52.3743316,91.4269663 L0,57.6966292 C23.9679144,22.6348315 67.4652406,0 123.390374,0 C192.631016,0 238.791444,35.505618 238.791444,91.8707865 C238.791444,122.050562 230.358289,149.567416 186.860963,189.955056 L115.40107,257.41573 Z" id="2019" fill="url(#linearGradient-1)"></path>
            <path d="M401,321 C324.746667,321 268,262.918508 268,160.5 C268,58.0814917 324.746667,0 401,0 C477.696667,0 534,58.0814917 534,160.5 C534,262.918508 477.696667,321 401,321 Z M401.278388,261 C437.179487,261 462,231.666667 462,161 C462,90.3333333 437.179487,61 401.278388,61 C365.820513,61 341,90.3333333 341,161 C341,231.666667 365.820513,261 401.278388,261 Z" id="2019" fill="url(#linearGradient-2)"></path>
            <polygon id="2019" fill="url(#linearGradient-3)" points="540 6 673 6 673 316 601.655629 316 601.655629 63.5714286 540 63.5714286"></polygon>
            <path d="M823.370242,0 C909.294118,0 962,53.6477901 962,153.849448 C962,261.145028 897.778547,321 803.882353,321 C771.107266,321 739.6609,313.462707 717.958478,299.718232 L744.532872,246.957182 C761.363322,258.484807 781.294118,262.475138 802.553633,262.475138 C853.930796,262.475138 887.591696,231.882597 889.806228,172.027624 C871.647059,190.205801 845.072664,199.959945 812.740484,199.959945 C752.948097,199.959945 706,161.83011 706,103.305249 C706,39.9033149 757.820069,0 823.370242,0 Z M828.778243,147 C860.267782,147 882,127.421053 882,100.277512 C882,73.5789474 862.041841,54 827.891213,54 C797.288703,54 776,71.7990431 776,100.277512 C776,128.755981 796.845188,147 828.778243,147 Z" id="2019" fill="url(#linearGradient-4)"></path>
        </g>
    </g>
</svg>