<svg xmlns="http://www.w3.org/2000/svg" viewBox="0 0 962 321"><title>soon</title><path d="M828.78,147c31.49,0,53.22-19.58,53.22-46.72C882,73.58,862,54,827.89,54,797.29,54,776,71.8,776,100.28S796.85,147,828.78,147ZM823.37,0C909.29,0,962,53.65,962,153.85,962,261.15,897.78,321,803.88,321c-32.77,0-64.22-7.54-85.92-21.28L744.53,247c16.83,11.52,36.76,15.52,58,15.52,51.38,0,85-30.6,87.26-90.45C871.65,190.21,845.07,200,812.74,200,753,200,706,161.83,706,103.31,706,39.9,757.82,0,823.37,0ZM540,6H673V316H601.66V63.57H540ZM401.28,261c35.9,0,60.72-29.33,60.72-100S437.18,61,401.28,61C365.82,61,341,90.33,341,161S365.82,261,401.28,261ZM401,321c-76.25,0-133-58.08-133-160.5S324.75,0,401,0c76.7,0,133,58.08,133,160.5S477.7,321,401,321ZM115.4,257.42H249V316H14.2V269.4L134,156.22c27.52-26.18,32.4-42.16,32.4-57.25,0-24.41-16.86-38.61-49.71-38.61-26.63,0-49.26,10.21-64.36,31.07L0,57.7C24,22.63,67.47,0,123.39,0c69.24,0,115.4,35.51,115.4,91.87,0,30.18-8.43,57.7-51.93,98.09Z" fill="#2f2f33"/></svg>